<?xml version="1.0" encoding="UTF-8" standalone="no" ?>
<!DOCTYPE svg PUBLIC "-//W3C//DTD SVG 1.1//EN" "http://www.w3.org/Graphics/SVG/1.1/DTD/svg11.dtd">
<svg xmlns="http://www.w3.org/2000/svg" xmlns:xlink="http://www.w3.org/1999/xlink" version="1.1" width="1280" height="1024" viewBox="0 0 1280 1024" xml:space="preserve">
<desc>Created with Fabric.js 5.3.0</desc>
<defs>
</defs>
<g transform="matrix(1 0 0 1 640 512)" id="background-logo"  >
<rect style="stroke: none; stroke-width: 0; stroke-dasharray: none; stroke-linecap: butt; stroke-dashoffset: 0; stroke-linejoin: miter; stroke-miterlimit: 4; fill: rgb(255,255,255); fill-opacity: 0; fill-rule: nonzero; opacity: 1;"  paint-order="stroke"  x="-640" y="-512" rx="0" ry="0" width="1280" height="1024" />
</g>
<g transform="matrix(1.9211538461538462 0 0 1.9211538461538462 640 395.6864080388972)" id="logo-logo"  >
<g style=""  paint-order="stroke"   >
		<g transform="matrix(0.917930923744532 0 0 0.9179309237445321 0 0)"  >
<g style=""  paint-order="stroke"   >
		<g transform="matrix(1 0 0 1 0 0)"  >
<linearGradient id="SVGID_53_95808" gradientUnits="userSpaceOnUse" gradientTransform="matrix(1 0 0 1 -100 -100)"  x1="0" y1="0" x2="0" y2="200">
<stop offset="0%" style="stop-color:rgb(23,234,217);stop-opacity: 1"/>
<stop offset="100%" style="stop-color:rgb(96,120,234);stop-opacity: 1"/>
</linearGradient>
<polygon style="stroke: none; stroke-width: 1; stroke-dasharray: none; stroke-linecap: butt; stroke-dashoffset: 0; stroke-linejoin: miter; stroke-miterlimit: 4; fill: url(#SVGID_53_95808); fill-rule: nonzero; opacity: 1;"  paint-order="stroke"  points="100,100 0,100 0,95.12 95.12,95.12 95.12,-95.12 -95.12,-95.12 -95.12,0 -100,0 -100,-100 100,-100 100,100 " />
</g>
</g>
</g>
</g>
</g>
<g transform="matrix(1.9211538461538462 0 0 1.9211538461538462 639.9875125000001 669.2320793881775)" id="text-logo"  >
<g style=""  paint-order="stroke"   >
		<g transform="matrix(1 0 0 1 0 0)" id="text-logo-path-0"  >
<path style="stroke: rgb(255,255,255); stroke-width: 0; stroke-dasharray: none; stroke-linecap: butt; stroke-dashoffset: 0; stroke-linejoin: miter; stroke-miterlimit: 4; fill: rgb(49,192,223); fill-rule: nonzero; opacity: 1;"  paint-order="stroke"  transform=" translate(-36.73, 4.955)" d="M 10.56 -7.14 L 12.38 -7.14 L 12.38 -6.28 L 10.56 -6.28 L 10.56 -4.77 Q 10.56 -4.41 10.46 -4.21 Q 10.36 -4 10.1 -3.9 L 10.1 -3.9 Q 9.84 -3.8 9.41 -3.78 Q 8.97 -3.76 8.31 -3.76 L 8.31 -3.76 Q 8.28 -3.94 8.19 -4.17 Q 8.1 -4.39 8 -4.58 L 8 -4.58 Q 8.48 -4.56 8.87 -4.56 Q 9.26 -4.56 9.37 -4.56 L 9.37 -4.56 Q 9.52 -4.58 9.56 -4.62 Q 9.61 -4.65 9.61 -4.77 L 9.61 -4.77 L 9.61 -6.28 L 3.63 -6.28 Q 3.47 -5.49 3.04 -4.73 Q 2.6 -3.97 1.72 -3.38 L 1.72 -3.38 Q 1.66 -3.46 1.57 -3.56 Q 1.48 -3.65 1.38 -3.75 Q 1.29 -3.85 1.19 -3.93 Q 1.09 -4.02 1.01 -4.07 L 1.01 -4.07 Q 1.76 -4.54 2.13 -5.1 Q 2.51 -5.67 2.65 -6.28 L 2.65 -6.28 L 0.72 -6.28 L 0.72 -7.14 L 2.78 -7.14 Q 2.8 -7.28 2.8 -7.4 Q 2.8 -7.51 2.8 -7.64 L 2.8 -7.64 L 2.8 -9.89 L 5.6 -9.89 Q 5.73 -10.15 5.85 -10.47 Q 5.97 -10.78 6.02 -11 L 6.02 -11 L 7.07 -10.79 Q 6.96 -10.56 6.85 -10.33 Q 6.75 -10.1 6.64 -9.89 L 6.64 -9.89 L 10.56 -9.89 L 10.56 -7.14 Z M 7.09 -7.14 L 9.61 -7.14 L 9.61 -9.1 L 3.74 -9.1 L 3.74 -7.62 Q 3.74 -7.5 3.74 -7.38 Q 3.74 -7.27 3.73 -7.14 L 3.73 -7.14 L 7.06 -7.14 Q 6.92 -7.28 6.7 -7.45 Q 6.47 -7.62 6.22 -7.79 Q 5.97 -7.96 5.7 -8.11 Q 5.43 -8.27 5.17 -8.39 L 5.17 -8.39 L 5.64 -8.93 Q 5.9 -8.81 6.18 -8.67 Q 6.45 -8.53 6.71 -8.37 Q 6.97 -8.2 7.2 -8.03 Q 7.42 -7.87 7.59 -7.72 L 7.59 -7.72 L 7.09 -7.14 Z M 5.07 -5.53 L 5.56 -6.07 Q 5.84 -5.95 6.13 -5.79 Q 6.42 -5.63 6.7 -5.46 Q 6.98 -5.29 7.23 -5.12 Q 7.48 -4.94 7.64 -4.78 L 7.64 -4.78 L 7.12 -4.19 Q 6.97 -4.34 6.73 -4.52 Q 6.49 -4.69 6.21 -4.87 Q 5.94 -5.04 5.64 -5.22 Q 5.34 -5.4 5.07 -5.53 L 5.07 -5.53 Z M 10.92 -3.41 L 10.92 -0.23 L 12.38 -0.23 L 12.38 0.62 L 0.62 0.62 L 0.62 -0.23 L 2.09 -0.23 L 2.09 -3.41 L 10.92 -3.41 Z M 2.99 -2.63 L 2.99 -0.23 L 4.72 -0.23 L 4.72 -2.63 L 2.99 -2.63 Z M 7.33 -2.63 L 5.62 -2.63 L 5.62 -0.23 L 7.33 -0.23 L 7.33 -2.63 Z M 9.97 -2.63 L 8.23 -2.63 L 8.23 -0.23 L 9.97 -0.23 L 9.97 -2.63 Z M 28.24 -8.92 L 26.31 -8.92 Q 26.26 -8.74 26.21 -8.58 Q 26.16 -8.42 26.09 -8.26 L 26.09 -8.26 Q 26.36 -7.84 26.75 -7.47 Q 27.13 -7.1 27.61 -6.8 Q 28.09 -6.5 28.65 -6.27 Q 29.21 -6.05 29.82 -5.92 L 29.82 -5.92 Q 29.67 -5.79 29.5 -5.56 Q 29.34 -5.34 29.24 -5.16 L 29.24 -5.16 Q 28.15 -5.46 27.24 -6.06 Q 26.34 -6.67 25.71 -7.5 L 25.71 -7.5 Q 25.26 -6.71 24.45 -6.09 Q 23.65 -5.47 22.3 -5.07 L 22.3 -5.07 Q 22.23 -5.23 22.07 -5.43 Q 21.92 -5.64 21.78 -5.77 L 21.78 -5.77 Q 22.63 -6.01 23.24 -6.34 Q 23.86 -6.67 24.28 -7.08 Q 24.7 -7.49 24.95 -7.95 Q 25.19 -8.41 25.34 -8.92 L 25.34 -8.92 L 23.8 -8.92 Q 23.53 -8.53 23.2 -8.15 Q 22.87 -7.77 22.45 -7.44 L 22.45 -7.44 Q 22.33 -7.61 22.13 -7.77 Q 21.93 -7.94 21.78 -8.03 L 21.78 -8.03 Q 22.55 -8.65 23.06 -9.4 Q 23.57 -10.15 23.82 -10.83 L 23.82 -10.83 L 24.74 -10.7 Q 24.54 -10.19 24.27 -9.69 L 24.27 -9.69 L 28.67 -9.69 L 28.82 -9.72 L 29.52 -9.53 Q 29.28 -8.98 29 -8.44 Q 28.72 -7.9 28.48 -7.53 L 28.48 -7.53 L 27.64 -7.77 Q 27.78 -8 27.93 -8.3 Q 28.08 -8.61 28.24 -8.92 L 28.24 -8.92 Z M 21.88 -9.09 L 21.37 -8.33 Q 21.15 -8.5 20.83 -8.7 Q 20.51 -8.89 20.15 -9.07 Q 19.79 -9.26 19.4 -9.43 Q 19.02 -9.61 18.67 -9.74 L 18.67 -9.74 L 19.15 -10.41 Q 19.5 -10.3 19.88 -10.13 Q 20.27 -9.97 20.64 -9.8 Q 21.01 -9.62 21.33 -9.44 Q 21.66 -9.26 21.88 -9.09 L 21.88 -9.09 Z M 21.96 -7.58 L 22.1 -6.73 Q 21.16 -6.42 20.21 -6.11 Q 19.27 -5.8 18.49 -5.54 L 18.49 -5.54 L 18.21 -6.44 Q 18.91 -6.63 19.91 -6.94 Q 20.9 -7.24 21.96 -7.58 L 21.96 -7.58 Z M 28.26 -1.31 L 27.29 -1.31 L 27.29 -3.94 L 20.88 -3.94 L 20.88 -1.22 L 19.93 -1.22 L 19.93 -4.82 L 28.26 -4.82 L 28.26 -1.31 Z M 23.69 -3.56 L 24.62 -3.56 Q 24.47 -2.59 24.12 -1.84 Q 23.78 -1.09 23.11 -0.53 Q 22.44 0.04 21.36 0.42 Q 20.28 0.79 18.64 1.03 L 18.64 1.03 Q 18.59 0.86 18.46 0.62 Q 18.33 0.38 18.21 0.23 L 18.21 0.23 Q 19.76 0.04 20.75 -0.27 Q 21.74 -0.59 22.34 -1.05 Q 22.95 -1.51 23.24 -2.13 Q 23.54 -2.76 23.69 -3.56 L 23.69 -3.56 Z M 24.23 -1 L 24.77 -1.7 Q 25.36 -1.52 26.04 -1.29 Q 26.72 -1.05 27.37 -0.81 Q 28.03 -0.56 28.62 -0.31 Q 29.21 -0.07 29.64 0.16 L 29.64 0.16 L 29.07 0.95 Q 28.67 0.74 28.09 0.48 Q 27.51 0.22 26.85 -0.04 Q 26.2 -0.3 25.52 -0.55 Q 24.84 -0.81 24.23 -1 L 24.23 -1 Z M 46.73 -9.31 L 46.73 -8.39 L 36.52 -8.39 L 36.52 -9.31 L 41.38 -9.31 Q 41.24 -9.62 41.02 -9.98 Q 40.81 -10.34 40.59 -10.62 L 40.59 -10.62 L 41.54 -10.89 Q 41.83 -10.53 42.11 -10.09 Q 42.38 -9.66 42.51 -9.33 L 42.51 -9.33 L 42.45 -9.31 L 46.73 -9.31 Z M 40.47 -6.45 L 39.59 -6.06 Q 39.51 -6.25 39.39 -6.49 Q 39.27 -6.72 39.13 -6.97 Q 38.99 -7.22 38.82 -7.46 Q 38.65 -7.71 38.49 -7.93 L 38.49 -7.93 L 39.33 -8.27 Q 39.49 -8.06 39.66 -7.83 Q 39.83 -7.59 39.98 -7.35 Q 40.13 -7.1 40.26 -6.87 Q 40.39 -6.64 40.47 -6.45 L 40.47 -6.45 Z M 47.07 -6.02 L 47.07 -5.08 L 37.7 -5.08 L 37.7 -4.23 Q 37.7 -3.65 37.65 -2.96 Q 37.6 -2.28 37.45 -1.57 Q 37.3 -0.86 37.04 -0.17 Q 36.78 0.52 36.36 1.09 L 36.36 1.09 Q 36.3 1.03 36.19 0.93 Q 36.09 0.83 35.97 0.73 Q 35.85 0.64 35.75 0.55 Q 35.65 0.46 35.57 0.42 L 35.57 0.42 Q 35.95 -0.1 36.17 -0.71 Q 36.4 -1.31 36.52 -1.93 Q 36.63 -2.55 36.67 -3.15 Q 36.71 -3.74 36.71 -4.25 L 36.71 -4.25 L 36.71 -6.02 L 42.93 -6.02 Q 43.07 -6.24 43.21 -6.52 Q 43.36 -6.8 43.5 -7.09 Q 43.64 -7.38 43.76 -7.67 Q 43.89 -7.96 43.98 -8.2 L 43.98 -8.2 L 45.02 -7.87 Q 44.76 -7.4 44.47 -6.92 Q 44.17 -6.44 43.9 -6.02 L 43.9 -6.02 L 47.07 -6.02 Z M 53.68 -5.2 L 53.68 -3.9 L 54.85 -3.9 L 54.85 -5.2 Z M 66.04 -2.2 L 64.58 -1.91 L 64.58 0.94 L 63.69 0.94 L 63.69 -1.73 Q 63.01 -1.6 62.4 -1.48 Q 61.79 -1.35 61.26 -1.25 L 61.26 -1.25 L 61.04 -2.18 Q 61.58 -2.28 62.26 -2.39 Q 62.93 -2.5 63.69 -2.64 L 63.69 -2.64 L 63.69 -4.5 L 62.52 -4.5 Q 62.18 -4.5 61.91 -4.45 Q 61.65 -4.39 61.57 -4.32 L 61.57 -4.32 Q 61.53 -4.46 61.44 -4.73 Q 61.36 -4.99 61.27 -5.17 L 61.27 -5.17 Q 61.4 -5.21 61.53 -5.43 Q 61.66 -5.66 61.8 -5.99 Q 61.93 -6.32 62.06 -6.7 Q 62.18 -7.09 62.28 -7.43 Q 62.39 -7.77 62.46 -8.05 Q 62.53 -8.32 62.56 -8.42 L 62.56 -8.42 L 61.15 -8.42 L 61.15 -9.33 L 62.76 -9.33 Q 62.86 -9.71 62.93 -10.09 Q 63 -10.48 63.05 -10.87 L 63.05 -10.87 L 64 -10.67 Q 63.93 -10.34 63.86 -10 Q 63.79 -9.67 63.7 -9.33 L 63.7 -9.33 L 66.01 -9.33 L 66.01 -8.42 L 63.45 -8.42 Q 63.23 -7.61 62.97 -6.83 Q 62.7 -6.06 62.43 -5.38 L 62.43 -5.38 L 63.69 -5.38 L 63.69 -7.37 L 64.58 -7.37 L 64.58 -5.38 L 65.9 -5.38 L 65.9 -4.5 L 64.58 -4.5 L 64.58 -2.8 L 65.99 -3.06 L 66.04 -2.2 Z M 72.84 -5.62 L 72.28 -4.86 Q 72.05 -5.03 71.71 -5.23 Q 71.38 -5.43 71.01 -5.65 Q 70.63 -5.86 70.23 -6.08 Q 69.82 -6.29 69.43 -6.49 L 69.43 -6.49 Q 68.76 -5.95 68.03 -5.53 Q 67.3 -5.11 66.56 -4.8 L 66.56 -4.8 Q 66.46 -4.97 66.28 -5.2 Q 66.11 -5.43 65.95 -5.58 L 65.95 -5.58 Q 66.64 -5.84 67.32 -6.23 Q 68 -6.62 68.64 -7.09 Q 69.28 -7.57 69.82 -8.13 Q 70.36 -8.68 70.75 -9.29 L 70.75 -9.29 L 66.63 -9.29 L 66.63 -10.19 L 71.32 -10.19 L 71.51 -10.23 L 72.18 -9.88 Q 71.83 -9.07 71.3 -8.38 Q 70.77 -7.68 70.14 -7.1 L 70.14 -7.1 Q 70.51 -6.92 70.9 -6.72 Q 71.28 -6.53 71.64 -6.33 Q 71.99 -6.14 72.3 -5.95 Q 72.61 -5.77 72.84 -5.62 L 72.84 -5.62 Z M 69.94 -3.42 L 69.94 -0.27 L 72.8 -0.27 L 72.8 0.64 L 65.96 0.64 L 65.96 -0.27 L 68.99 -0.27 L 68.99 -3.42 L 66.69 -3.42 L 66.69 -4.32 L 72.23 -4.32 L 72.23 -3.42 L 69.94 -3.42 Z" stroke-linecap="round" />
</g>
</g>
</g>
<g transform="matrix(1.9211538461538462 0 0 1.9211538461538462 640.1460076923078 399.566001388657)" id="tagline-3a78d944-c0db-44d4-8ad5-60158c925687-logo"  >
<g style=""  paint-order="stroke"   >
		<g transform="matrix(1 0 0 1 0 0)" id="tagline-3a78d944-c0db-44d4-8ad5-60158c925687-logo-path-0"  >
<linearGradient id="SVGID_95809" gradientUnits="userSpaceOnUse" gradientTransform="matrix(1 0 0 1 1.8200000000000003 -16.34)"  x1="-1.9000002899169885" y1="-17.067320000000024" x2="-1.9000002899169885" y2="25.932679999999976">
<stop offset="0%" style="stop-color:rgb(23,234,217);stop-opacity: 1"/>
<stop offset="100%" style="stop-color:rgb(96,120,234);stop-opacity: 1"/>
</linearGradient>
<path style="stroke: rgb(255,255,255); stroke-width: 0; stroke-dasharray: none; stroke-linecap: butt; stroke-dashoffset: 0; stroke-linejoin: miter; stroke-miterlimit: 4; fill: url(#SVGID_95809); fill-rule: nonzero; opacity: 1;"  paint-order="stroke"  transform=" translate(-19.075, 14.8)" d="M 1.82 -16.34 L 36.33 -16.34 L 36.33 -13.26 L 1.82 -13.26 L 1.82 -16.34 Z" stroke-linecap="round" />
</g>
</g>
</g>
<g transform="matrix(1.9211538461538462 0 0 1.9211538461538462 633.2529076923076 795.363099025185)" id="tagline-ee21041c-fd7a-4646-a088-df0a2334375e-logo"  >
<g style=""  paint-order="stroke"   >
		<g transform="matrix(1 0 0 1 0 0)" id="tagline-ee21041c-fd7a-4646-a088-df0a2334375e-logo-path-0"  >
<path style="stroke: none; stroke-width: 0; stroke-dasharray: none; stroke-linecap: butt; stroke-dashoffset: 0; stroke-linejoin: miter; stroke-miterlimit: 4; fill: rgb(63,171,226); fill-rule: nonzero; opacity: 1;"  paint-order="stroke"  transform=" translate(-133.79500000000002, 3.0549999999999997)" d="M 3.66 -6.66 L 4.32 -6.66 Q 4.31 -6.45 4.3 -6.16 Q 4.3 -5.86 4.26 -5.5 L 4.26 -5.5 Q 4.3 -5.26 4.36 -4.85 Q 4.43 -4.43 4.58 -3.92 Q 4.72 -3.41 4.96 -2.84 Q 5.2 -2.27 5.57 -1.74 Q 5.94 -1.2 6.46 -0.73 Q 6.98 -0.26 7.69 0.05 L 7.69 0.05 Q 7.56 0.15 7.44 0.29 Q 7.32 0.42 7.26 0.55 L 7.26 0.55 Q 6.5 0.2 5.96 -0.32 Q 5.42 -0.84 5.03 -1.44 Q 4.65 -2.04 4.4 -2.66 Q 4.16 -3.29 4.02 -3.85 L 4.02 -3.85 Q 3.88 -3.25 3.64 -2.63 Q 3.4 -2.01 3.02 -1.42 Q 2.65 -0.84 2.12 -0.32 Q 1.58 0.19 0.85 0.58 L 0.85 0.58 Q 0.77 0.46 0.64 0.34 Q 0.5 0.22 0.37 0.12 L 0.37 0.12 Q 1.2 -0.3 1.76 -0.88 Q 2.33 -1.46 2.69 -2.12 Q 3.06 -2.77 3.25 -3.45 Q 3.45 -4.13 3.54 -4.74 Q 3.62 -5.35 3.64 -5.86 Q 3.66 -6.36 3.66 -6.66 L 3.66 -6.66 Z M 17 -0.59 L 20.27 -0.59 L 20.27 0 L 13.14 0 L 13.14 -0.59 L 16.35 -0.59 L 16.35 -5.18 L 13.55 -5.18 L 13.55 -5.79 L 19.87 -5.79 L 19.87 -5.18 L 17 -5.18 L 17 -0.59 Z M 29.35 -3.28 L 28.94 -2.87 Q 28.85 -2.94 28.7 -3.06 Q 28.56 -3.17 28.39 -3.29 Q 28.22 -3.42 28.04 -3.54 Q 27.86 -3.66 27.71 -3.77 L 27.71 -3.77 Q 27.5 -3.42 27.13 -3.1 Q 26.75 -2.77 26.12 -2.48 L 26.12 -2.48 Q 26.06 -2.58 25.96 -2.7 Q 25.85 -2.82 25.74 -2.89 L 25.74 -2.89 Q 26.13 -3.04 26.4 -3.21 Q 26.67 -3.38 26.86 -3.56 Q 27.06 -3.74 27.17 -3.93 Q 27.29 -4.12 27.35 -4.3 L 27.35 -4.3 L 25.82 -4.3 L 25.82 -4.79 L 27.46 -4.79 Q 27.47 -4.87 27.47 -4.94 Q 27.47 -5.01 27.47 -5.08 L 27.47 -5.08 L 27.47 -5.54 L 26.8 -5.54 Q 26.57 -5.13 26.3 -4.83 L 26.3 -4.83 Q 26.21 -4.9 26.06 -4.98 Q 25.92 -5.07 25.82 -5.12 L 25.82 -5.12 Q 26.12 -5.42 26.35 -5.84 Q 26.58 -6.26 26.72 -6.71 L 26.72 -6.71 L 27.26 -6.61 Q 27.22 -6.46 27.16 -6.31 Q 27.1 -6.17 27.04 -6.02 L 27.04 -6.02 L 29.22 -6.02 L 29.22 -5.54 L 28.04 -5.54 L 28.04 -5.08 Q 28.04 -5.01 28.04 -4.94 Q 28.04 -4.87 28.02 -4.79 L 28.02 -4.79 L 29.42 -4.79 L 29.42 -4.3 L 27.94 -4.3 Q 27.93 -4.26 27.92 -4.24 Q 27.91 -4.21 27.9 -4.17 L 27.9 -4.17 Q 28.02 -4.1 28.22 -3.98 Q 28.43 -3.86 28.66 -3.72 Q 28.88 -3.58 29.08 -3.46 Q 29.27 -3.34 29.35 -3.28 L 29.35 -3.28 Z M 29.74 -6.05 L 32.54 -6.05 L 32.54 -3.27 L 29.74 -3.27 L 29.74 -6.05 Z M 31.95 -3.82 L 31.95 -5.51 L 30.3 -5.51 L 30.3 -3.82 L 31.95 -3.82 Z M 26.98 0.62 L 26.98 -2.66 L 31.86 -2.66 L 31.86 0.6 L 31.26 0.6 L 31.26 0.32 L 27.56 0.32 L 27.56 0.62 L 26.98 0.62 Z M 31.26 -2.18 L 27.56 -2.18 L 27.56 -1.42 L 31.26 -1.42 L 31.26 -2.18 Z M 27.56 -0.17 L 31.26 -0.17 L 31.26 -0.96 L 27.56 -0.96 L 27.56 -0.17 Z M 40.59 -6.02 L 41.08 -6.22 Q 41.23 -6.02 41.39 -5.79 Q 41.54 -5.56 41.68 -5.33 Q 41.82 -5.1 41.93 -4.88 Q 42.04 -4.66 42.1 -4.49 L 42.1 -4.49 L 41.58 -4.26 Q 41.51 -4.46 41.41 -4.68 L 41.41 -4.68 Q 40.59 -4.62 40.1 -4.58 Q 39.61 -4.54 39.34 -4.51 Q 39.06 -4.48 38.95 -4.46 Q 38.84 -4.44 38.78 -4.42 L 38.78 -4.42 Q 38.77 -4.46 38.74 -4.54 Q 38.72 -4.61 38.7 -4.69 Q 38.67 -4.77 38.64 -4.84 Q 38.61 -4.92 38.58 -4.98 L 38.58 -4.98 Q 38.74 -5.02 38.92 -5.25 Q 39.11 -5.48 39.29 -5.77 Q 39.46 -6.06 39.6 -6.32 Q 39.74 -6.59 39.78 -6.71 L 39.78 -6.71 L 40.39 -6.52 Q 40.18 -6.12 39.93 -5.73 Q 39.67 -5.34 39.42 -5.02 L 39.42 -5.02 L 41.17 -5.13 Q 41.03 -5.36 40.88 -5.59 Q 40.74 -5.82 40.59 -6.02 L 40.59 -6.02 Z M 44.82 -3.2 L 43.44 -3.2 Q 43.16 -3.2 42.98 -3.24 Q 42.79 -3.28 42.68 -3.38 Q 42.58 -3.47 42.54 -3.63 Q 42.5 -3.79 42.5 -4.03 L 42.5 -4.03 L 42.5 -6.67 L 43.07 -6.67 L 43.07 -5.34 Q 43.58 -5.5 44.08 -5.71 Q 44.58 -5.91 44.93 -6.09 L 44.93 -6.09 L 45.33 -5.66 Q 44.85 -5.43 44.25 -5.23 Q 43.65 -5.02 43.07 -4.85 L 43.07 -4.85 L 43.07 -4.04 Q 43.07 -3.86 43.15 -3.8 Q 43.22 -3.74 43.5 -3.74 L 43.5 -3.74 L 44.77 -3.74 Q 44.88 -3.74 44.95 -3.77 Q 45.02 -3.8 45.07 -3.9 Q 45.11 -4 45.13 -4.18 Q 45.15 -4.37 45.17 -4.66 L 45.17 -4.66 Q 45.26 -4.58 45.41 -4.52 Q 45.57 -4.46 45.7 -4.43 L 45.7 -4.43 Q 45.67 -4.07 45.62 -3.84 Q 45.57 -3.6 45.47 -3.46 Q 45.37 -3.31 45.21 -3.26 Q 45.06 -3.2 44.82 -3.2 L 44.82 -3.2 Z M 41.74 -3.86 L 41.74 -0.07 Q 41.74 0.16 41.69 0.29 Q 41.63 0.42 41.46 0.49 L 41.46 0.49 Q 41.3 0.56 41.04 0.58 Q 40.78 0.59 40.4 0.59 L 40.4 0.59 Q 40.38 0.47 40.32 0.32 Q 40.27 0.16 40.21 0.05 L 40.21 0.05 Q 40.49 0.06 40.72 0.06 Q 40.94 0.06 41.02 0.05 L 41.02 0.05 Q 41.11 0.05 41.14 0.02 Q 41.16 0 41.16 -0.08 L 41.16 -0.08 L 41.16 -1.02 L 39.47 -1.02 L 39.47 0.61 L 38.92 0.61 L 38.92 -3.86 L 41.74 -3.86 Z M 41.16 -3.36 L 39.47 -3.36 L 39.47 -2.68 L 41.16 -2.68 L 41.16 -3.36 Z M 43.52 0.02 L 44.81 0.02 Q 44.93 0.02 45.01 -0.02 Q 45.09 -0.06 45.13 -0.18 Q 45.18 -0.29 45.2 -0.49 Q 45.22 -0.7 45.24 -1.03 L 45.24 -1.03 Q 45.34 -0.97 45.49 -0.9 Q 45.64 -0.84 45.77 -0.82 L 45.77 -0.82 Q 45.74 -0.41 45.69 -0.15 Q 45.64 0.11 45.54 0.27 Q 45.43 0.42 45.27 0.48 Q 45.1 0.54 44.86 0.54 L 44.86 0.54 L 43.46 0.54 Q 43.18 0.54 42.99 0.5 Q 42.8 0.46 42.69 0.37 Q 42.58 0.27 42.54 0.11 Q 42.5 -0.05 42.5 -0.3 L 42.5 -0.3 L 42.5 -2.98 L 43.08 -2.98 L 43.08 -1.72 Q 43.35 -1.81 43.62 -1.91 Q 43.9 -2.01 44.15 -2.11 Q 44.41 -2.22 44.63 -2.33 Q 44.86 -2.44 45.02 -2.55 L 45.02 -2.55 L 45.42 -2.11 Q 45.19 -1.98 44.91 -1.85 Q 44.63 -1.73 44.32 -1.62 Q 44.02 -1.5 43.7 -1.41 Q 43.38 -1.31 43.08 -1.22 L 43.08 -1.22 L 43.08 -0.3 Q 43.08 -0.1 43.16 -0.04 Q 43.24 0.02 43.52 0.02 L 43.52 0.02 Z M 39.47 -1.48 L 41.16 -1.48 L 41.16 -2.21 L 39.47 -2.21 L 39.47 -1.48 Z M 53.46 -2.98 L 54.08 -2.98 Q 54.08 -2.93 54.08 -2.88 L 54.08 -2.88 Q 54.08 -2.84 54.08 -2.8 Q 54.08 -2.76 54.07 -2.73 L 54.07 -2.73 Q 54.02 -1.98 53.98 -1.45 Q 53.93 -0.92 53.87 -0.56 Q 53.82 -0.21 53.74 -0.01 Q 53.67 0.19 53.58 0.29 L 53.58 0.29 Q 53.47 0.41 53.36 0.46 Q 53.24 0.5 53.06 0.52 L 53.06 0.52 Q 52.91 0.54 52.65 0.53 Q 52.39 0.53 52.11 0.51 L 52.11 0.51 Q 52.1 0.39 52.06 0.26 Q 52.02 0.12 51.95 0.01 L 51.95 0.01 Q 52.24 0.04 52.49 0.05 Q 52.74 0.06 52.86 0.06 L 52.86 0.06 Q 52.96 0.06 53.02 0.04 Q 53.08 0.02 53.14 -0.04 L 53.14 -0.04 Q 53.2 -0.1 53.26 -0.26 Q 53.31 -0.42 53.36 -0.72 Q 53.41 -1.01 53.45 -1.44 Q 53.5 -1.88 53.53 -2.49 L 53.53 -2.49 L 51.39 -2.49 Q 51.42 -2.75 51.46 -3.09 Q 51.5 -3.43 51.53 -3.8 Q 51.57 -4.17 51.6 -4.54 Q 51.62 -4.9 51.64 -5.22 L 51.64 -5.22 L 52.15 -5.2 Q 52.11 -4.67 52.06 -4.08 Q 52.02 -3.48 51.96 -2.98 L 51.96 -2.98 L 52.94 -2.98 Q 52.98 -3.26 53.02 -3.6 Q 53.06 -3.94 53.09 -4.32 Q 53.12 -4.7 53.15 -5.08 Q 53.18 -5.47 53.21 -5.83 L 53.21 -5.83 L 51.36 -5.83 L 51.36 -6.34 L 53.24 -6.34 L 53.24 -6.35 L 53.76 -6.35 Q 53.74 -5.94 53.7 -5.48 Q 53.66 -5.02 53.62 -4.57 Q 53.58 -4.12 53.54 -3.71 Q 53.5 -3.3 53.46 -2.98 L 53.46 -2.98 Z M 55.01 -0.25 L 58.44 -0.25 L 58.44 0.3 L 54.45 0.3 L 54.45 -6.22 L 58.28 -6.22 L 58.28 -5.68 L 55.01 -5.68 L 55.01 -0.25 Z M 58.25 -1.15 L 57.78 -0.82 Q 57.62 -1.17 57.38 -1.59 Q 57.14 -2.02 56.86 -2.47 L 56.86 -2.47 Q 56.58 -1.94 56.27 -1.48 Q 55.97 -1.02 55.64 -0.64 L 55.64 -0.64 Q 55.58 -0.72 55.43 -0.84 Q 55.29 -0.96 55.19 -1.02 L 55.19 -1.02 Q 55.55 -1.42 55.89 -1.92 Q 56.22 -2.42 56.52 -3 L 56.52 -3 Q 56.22 -3.46 55.9 -3.9 Q 55.58 -4.34 55.26 -4.74 L 55.26 -4.74 L 55.69 -5.02 Q 55.96 -4.68 56.24 -4.31 Q 56.52 -3.94 56.79 -3.55 L 56.79 -3.55 Q 56.98 -3.95 57.14 -4.37 Q 57.3 -4.78 57.44 -5.21 L 57.44 -5.21 L 57.98 -5.09 Q 57.62 -4 57.14 -3.03 L 57.14 -3.03 Q 57.5 -2.5 57.78 -2.02 Q 58.06 -1.54 58.25 -1.15 L 58.25 -1.15 Z M 53.14 -1.72 L 53.19 -1.26 Q 52.66 -1.11 52.14 -0.96 Q 51.62 -0.82 51.18 -0.7 L 51.18 -0.7 L 51.06 -1.19 Q 51.46 -1.28 52.01 -1.42 Q 52.56 -1.57 53.14 -1.72 L 53.14 -1.72 Z M 69.26 -4.86 L 71.02 -4.86 Q 71.02 -4.79 71.02 -4.74 L 71.02 -4.74 Q 71.01 -4.69 71.01 -4.64 Q 71.01 -4.59 71.01 -4.56 L 71.01 -4.56 Q 70.97 -3.34 70.93 -2.49 Q 70.89 -1.64 70.84 -1.09 Q 70.78 -0.54 70.71 -0.24 Q 70.64 0.06 70.54 0.19 L 70.54 0.19 Q 70.41 0.35 70.28 0.41 Q 70.15 0.47 69.96 0.5 L 69.96 0.5 Q 69.78 0.51 69.48 0.51 Q 69.18 0.5 68.86 0.49 L 68.86 0.49 Q 68.84 0.35 68.8 0.19 Q 68.75 0.03 68.67 -0.1 L 68.67 -0.1 Q 69.01 -0.06 69.29 -0.06 Q 69.58 -0.06 69.71 -0.06 L 69.71 -0.06 Q 69.82 -0.05 69.88 -0.07 Q 69.95 -0.1 70.02 -0.18 L 70.02 -0.18 Q 70.1 -0.26 70.16 -0.52 Q 70.22 -0.78 70.26 -1.26 Q 70.31 -1.74 70.35 -2.48 Q 70.39 -3.22 70.42 -4.29 L 70.42 -4.29 L 69.23 -4.29 Q 69.19 -3.55 69.1 -2.85 Q 69 -2.15 68.82 -1.52 Q 68.64 -0.9 68.35 -0.35 Q 68.06 0.19 67.62 0.61 L 67.62 0.61 Q 67.54 0.5 67.4 0.37 Q 67.26 0.24 67.15 0.18 L 67.15 0.18 Q 67.56 -0.2 67.83 -0.69 Q 68.1 -1.18 68.27 -1.75 Q 68.44 -2.32 68.53 -2.96 Q 68.62 -3.61 68.65 -4.29 L 68.65 -4.29 L 67.54 -4.29 L 67.54 -4.86 L 68.67 -4.86 Q 68.69 -5.28 68.69 -5.7 Q 68.7 -6.13 68.7 -6.56 L 68.7 -6.56 L 69.28 -6.56 Q 69.28 -5.7 69.26 -4.86 L 69.26 -4.86 Z M 67.3 -6.04 L 67.3 -5.5 L 64.22 -5.5 L 64.22 -6.04 L 67.3 -6.04 Z M 67.58 -0.7 L 67.05 -0.54 Q 67.02 -0.65 66.98 -0.78 Q 66.94 -0.91 66.9 -1.06 L 66.9 -1.06 Q 66.08 -0.87 65.58 -0.76 Q 65.08 -0.64 64.8 -0.57 Q 64.53 -0.5 64.41 -0.45 Q 64.3 -0.41 64.22 -0.37 L 64.22 -0.37 L 64.22 -0.4 Q 64.22 -0.39 64.22 -0.38 L 64.22 -0.38 Q 64.2 -0.46 64.14 -0.64 Q 64.08 -0.82 64.03 -0.93 L 64.03 -0.93 Q 64.13 -0.95 64.23 -1.14 Q 64.34 -1.33 64.44 -1.6 Q 64.55 -1.87 64.65 -2.19 Q 64.75 -2.51 64.83 -2.8 Q 64.91 -3.09 64.97 -3.31 Q 65.02 -3.53 65.04 -3.6 L 65.04 -3.6 L 63.94 -3.6 L 63.94 -4.14 L 67.43 -4.14 L 67.43 -3.6 L 65.66 -3.6 Q 65.5 -2.97 65.28 -2.34 Q 65.07 -1.7 64.84 -1.16 L 64.84 -1.16 L 66.74 -1.56 Q 66.62 -1.86 66.51 -2.18 Q 66.39 -2.5 66.27 -2.78 L 66.27 -2.78 L 66.76 -2.91 Q 66.88 -2.65 67 -2.35 Q 67.12 -2.05 67.23 -1.75 Q 67.34 -1.46 67.43 -1.18 Q 67.52 -0.91 67.58 -0.7 L 67.58 -0.7 Z M 79.96 0 L 76.87 0 L 76.87 -5.71 L 79.96 -5.71 L 79.96 0 Z M 77.26 -5.3 L 77.26 -0.41 L 79.58 -0.41 L 79.58 -5.3 L 77.26 -5.3 Z M 89.38 -5.78 L 89.38 -2.08 L 88.82 -2.08 L 88.82 -6.3 L 92.38 -6.3 L 92.38 -2.08 L 91.8 -2.08 L 91.8 -5.78 L 89.38 -5.78 Z M 88.5 -1.6 L 88.58 -1.05 L 85.86 -0.24 L 85.74 -0.82 Q 85.98 -0.88 86.27 -0.96 Q 86.56 -1.03 86.89 -1.13 L 86.89 -1.13 L 86.89 -3.3 L 85.94 -3.3 L 85.94 -3.86 L 86.89 -3.86 L 86.89 -5.59 L 85.83 -5.59 L 85.83 -6.15 L 88.46 -6.15 L 88.46 -5.59 L 87.46 -5.59 L 87.46 -3.86 L 88.3 -3.86 L 88.3 -3.3 L 87.46 -3.3 L 87.46 -1.3 Q 87.72 -1.36 87.98 -1.44 Q 88.24 -1.52 88.5 -1.6 L 88.5 -1.6 Z M 91.47 -0.05 L 92.12 -0.05 Q 92.23 -0.05 92.3 -0.1 Q 92.36 -0.15 92.4 -0.3 Q 92.43 -0.44 92.45 -0.7 Q 92.47 -0.97 92.49 -1.39 L 92.49 -1.39 Q 92.6 -1.31 92.73 -1.25 Q 92.86 -1.19 92.97 -1.17 L 92.97 -1.17 Q 92.94 -0.7 92.9 -0.39 Q 92.86 -0.09 92.78 0.09 Q 92.69 0.26 92.53 0.33 Q 92.38 0.4 92.12 0.4 L 92.12 0.4 L 91.39 0.4 Q 90.98 0.4 90.81 0.26 Q 90.63 0.13 90.63 -0.27 L 90.63 -0.27 L 90.63 -1.95 Q 90.53 -1.59 90.35 -1.24 Q 90.18 -0.89 89.91 -0.56 Q 89.64 -0.22 89.27 0.08 Q 88.9 0.38 88.4 0.63 L 88.4 0.63 Q 88.38 0.59 88.33 0.53 Q 88.28 0.47 88.23 0.41 Q 88.18 0.34 88.12 0.29 Q 88.07 0.23 88.02 0.2 L 88.02 0.2 Q 88.78 -0.18 89.22 -0.65 Q 89.67 -1.11 89.9 -1.6 Q 90.14 -2.1 90.21 -2.6 Q 90.28 -3.1 90.28 -3.57 L 90.28 -3.57 L 90.28 -5.1 L 90.84 -5.1 L 90.84 -3.55 Q 90.84 -3.22 90.81 -2.89 Q 90.78 -2.56 90.7 -2.21 L 90.7 -2.21 L 91.18 -2.21 L 91.18 -0.33 Q 91.18 -0.16 91.24 -0.1 Q 91.3 -0.05 91.47 -0.05 L 91.47 -0.05 Z M 100.57 -6.6 L 101.13 -6.42 Q 100.95 -6 100.74 -5.6 Q 100.52 -5.2 100.27 -4.81 L 100.27 -4.81 L 100.27 0.6 L 99.67 0.6 L 99.67 -3.95 Q 99.17 -3.3 98.6 -2.78 L 98.6 -2.78 Q 98.55 -2.89 98.44 -3.07 Q 98.34 -3.25 98.26 -3.35 L 98.26 -3.35 Q 98.6 -3.64 98.93 -4.01 Q 99.26 -4.38 99.56 -4.8 Q 99.86 -5.22 100.12 -5.67 Q 100.38 -6.13 100.57 -6.6 L 100.57 -6.6 Z M 105.66 -4.02 L 103.24 -3.72 Q 103.34 -2.93 103.49 -2.27 Q 103.64 -1.62 103.84 -1.14 Q 104.05 -0.66 104.31 -0.39 Q 104.57 -0.12 104.89 -0.09 L 104.89 -0.09 Q 105.06 -0.07 105.16 -0.42 Q 105.26 -0.77 105.33 -1.46 L 105.33 -1.46 Q 105.38 -1.42 105.44 -1.38 Q 105.5 -1.33 105.58 -1.29 Q 105.65 -1.25 105.71 -1.21 Q 105.78 -1.18 105.82 -1.15 L 105.82 -1.15 Q 105.76 -0.64 105.67 -0.3 Q 105.58 0.05 105.46 0.25 Q 105.34 0.46 105.21 0.54 Q 105.07 0.62 104.91 0.61 L 104.91 0.61 Q 104.42 0.58 104.05 0.26 Q 103.68 -0.06 103.41 -0.62 Q 103.14 -1.17 102.95 -1.94 Q 102.77 -2.7 102.66 -3.64 L 102.66 -3.64 L 100.74 -3.4 L 100.66 -3.96 L 102.59 -4.2 Q 102.54 -4.76 102.5 -5.35 Q 102.46 -5.94 102.44 -6.57 L 102.44 -6.57 L 103.03 -6.57 Q 103.05 -5.96 103.08 -5.38 Q 103.12 -4.81 103.18 -4.28 L 103.18 -4.28 L 105.58 -4.58 L 105.66 -4.02 Z M 105.5 -5.24 L 105.04 -4.92 Q 104.94 -5.06 104.8 -5.22 Q 104.65 -5.39 104.48 -5.56 Q 104.3 -5.74 104.12 -5.91 Q 103.93 -6.09 103.75 -6.23 L 103.75 -6.23 L 104.18 -6.52 Q 104.37 -6.38 104.56 -6.21 Q 104.74 -6.05 104.92 -5.88 Q 105.1 -5.7 105.25 -5.54 Q 105.4 -5.38 105.5 -5.24 L 105.5 -5.24 Z M 114.8 -6.7 L 115.32 -6.45 Q 115.26 -6.36 115.22 -6.27 Q 115.17 -6.18 115.1 -6.1 L 115.1 -6.1 Q 115.86 -5.19 116.71 -4.59 Q 117.55 -3.98 118.47 -3.54 L 118.47 -3.54 Q 118.35 -3.45 118.23 -3.3 Q 118.1 -3.14 118.04 -3.01 L 118.04 -3.01 Q 117.6 -3.24 117.18 -3.5 Q 116.75 -3.76 116.35 -4.08 Q 115.94 -4.4 115.55 -4.78 Q 115.15 -5.16 114.76 -5.63 L 114.76 -5.63 Q 114.11 -4.81 113.27 -4.14 Q 112.42 -3.46 111.5 -3.02 L 111.5 -3.02 Q 111.43 -3.14 111.31 -3.3 Q 111.18 -3.45 111.06 -3.55 L 111.06 -3.55 Q 111.63 -3.79 112.17 -4.13 Q 112.71 -4.46 113.2 -4.87 Q 113.68 -5.27 114.09 -5.73 Q 114.5 -6.19 114.8 -6.7 L 114.8 -6.7 Z M 114.44 0.61 L 114.44 -4.34 L 115.05 -4.34 L 115.05 0.61 L 114.44 0.61 Z M 127.11 -6.66 L 127.77 -6.66 Q 127.76 -6.45 127.75 -6.16 Q 127.74 -5.86 127.71 -5.5 L 127.71 -5.5 Q 127.74 -5.26 127.81 -4.85 Q 127.88 -4.43 128.02 -3.92 Q 128.17 -3.41 128.41 -2.84 Q 128.65 -2.27 129.02 -1.74 Q 129.39 -1.2 129.91 -0.73 Q 130.43 -0.26 131.14 0.05 L 131.14 0.05 Q 131.01 0.15 130.89 0.29 Q 130.77 0.42 130.7 0.55 L 130.7 0.55 Q 129.95 0.2 129.41 -0.32 Q 128.86 -0.84 128.48 -1.44 Q 128.1 -2.04 127.85 -2.66 Q 127.61 -3.29 127.46 -3.85 L 127.46 -3.85 Q 127.33 -3.25 127.09 -2.63 Q 126.85 -2.01 126.47 -1.42 Q 126.1 -0.84 125.56 -0.32 Q 125.03 0.19 124.3 0.58 L 124.3 0.58 Q 124.22 0.46 124.08 0.34 Q 123.95 0.22 123.82 0.12 L 123.82 0.12 Q 124.65 -0.3 125.21 -0.88 Q 125.78 -1.46 126.14 -2.12 Q 126.5 -2.77 126.7 -3.45 Q 126.9 -4.13 126.98 -4.74 Q 127.07 -5.35 127.09 -5.86 Q 127.1 -6.36 127.11 -6.66 L 127.11 -6.66 Z M 142.19 -3.76 L 140.43 -3.76 L 140.43 -2.67 L 143.22 -2.67 L 143.22 -2.13 L 140.43 -2.13 L 140.43 -0.18 L 143.58 -0.18 L 143.58 0.38 L 136.71 0.38 L 136.71 -0.18 L 139.82 -0.18 L 139.82 -2.13 L 137.07 -2.13 L 137.07 -2.67 L 139.82 -2.67 L 139.82 -3.76 L 138.09 -3.76 L 138.09 -4.2 Q 137.46 -3.86 136.82 -3.62 L 136.82 -3.62 Q 136.75 -3.74 136.64 -3.9 Q 136.53 -4.06 136.42 -4.16 L 136.42 -4.16 Q 136.98 -4.34 137.52 -4.61 Q 138.06 -4.87 138.55 -5.2 Q 139.03 -5.54 139.44 -5.93 Q 139.85 -6.33 140.14 -6.77 L 140.14 -6.77 L 140.68 -6.51 Q 140.59 -6.37 140.48 -6.22 L 140.48 -6.22 Q 140.78 -5.9 141.18 -5.6 Q 141.58 -5.29 142.03 -5.02 Q 142.48 -4.74 142.96 -4.52 Q 143.44 -4.3 143.9 -4.16 L 143.9 -4.16 Q 143.78 -4.07 143.66 -3.92 Q 143.54 -3.76 143.48 -3.64 L 143.48 -3.64 Q 143.17 -3.76 142.84 -3.92 Q 142.52 -4.07 142.19 -4.26 L 142.19 -4.26 L 142.19 -3.76 Z M 138.28 -4.31 L 142.1 -4.31 Q 141.55 -4.63 141.05 -5.02 Q 140.54 -5.41 140.15 -5.82 L 140.15 -5.82 Q 139.75 -5.38 139.28 -5 Q 138.81 -4.62 138.28 -4.31 L 138.28 -4.31 Z M 141.61 -0.29 L 141.16 -0.48 Q 141.26 -0.62 141.38 -0.81 Q 141.5 -1 141.61 -1.2 Q 141.72 -1.39 141.82 -1.59 Q 141.92 -1.78 141.99 -1.95 L 141.99 -1.95 L 142.55 -1.74 Q 142.34 -1.36 142.08 -0.96 Q 141.82 -0.57 141.61 -0.29 L 141.61 -0.29 Z M 137.74 -1.75 L 138.23 -1.95 Q 138.35 -1.78 138.47 -1.59 Q 138.58 -1.4 138.68 -1.21 Q 138.78 -1.02 138.87 -0.84 Q 138.95 -0.66 139 -0.52 L 139 -0.52 L 138.48 -0.3 Q 138.44 -0.44 138.36 -0.62 Q 138.28 -0.8 138.18 -1 Q 138.09 -1.19 137.97 -1.39 Q 137.86 -1.58 137.74 -1.75 L 137.74 -1.75 Z M 156.54 0.48 L 156.07 0.62 Q 156.06 0.47 156.02 0.31 Q 155.98 0.14 155.94 -0.04 L 155.94 -0.04 Q 155.23 0.1 154.55 0.21 Q 153.87 0.33 153.33 0.44 L 153.33 0.44 L 153.18 -0.11 Q 153.74 -0.18 154.5 -0.32 L 154.5 -0.32 L 154.5 -2.1 L 153.32 -2.1 L 153.32 -5.11 L 154.5 -5.11 L 154.5 -6.63 L 155.03 -6.63 L 155.03 -5.11 L 156.19 -5.11 L 156.19 -2.1 L 155.03 -2.1 L 155.03 -0.39 L 155.8 -0.53 Q 155.64 -1.06 155.44 -1.54 L 155.44 -1.54 L 155.87 -1.66 Q 155.98 -1.4 156.09 -1.11 Q 156.19 -0.82 156.28 -0.53 Q 156.38 -0.25 156.44 0.02 Q 156.5 0.28 156.54 0.48 L 156.54 0.48 Z M 149.3 -5.82 L 149.3 -6.34 L 153.05 -6.34 L 153.05 -5.82 L 149.3 -5.82 Z M 152.66 -5.37 L 152.66 -3.75 L 149.68 -3.75 L 149.68 -5.37 L 152.66 -5.37 Z M 152.13 -4.18 L 152.13 -4.94 L 150.2 -4.94 L 150.2 -4.18 L 152.13 -4.18 Z M 153.77 -4.6 L 153.77 -2.62 L 154.54 -2.62 L 154.54 -4.6 L 153.77 -4.6 Z M 155.73 -2.62 L 155.73 -4.6 L 154.99 -4.6 L 154.99 -2.62 L 155.73 -2.62 Z M 152.93 -3.3 L 152.93 -0.05 Q 152.93 0.14 152.88 0.26 Q 152.84 0.37 152.7 0.43 L 152.7 0.43 Q 152.58 0.49 152.37 0.5 Q 152.16 0.51 151.85 0.51 L 151.85 0.51 Q 151.83 0.41 151.79 0.28 Q 151.74 0.15 151.7 0.05 L 151.7 0.05 Q 151.92 0.06 152.1 0.06 Q 152.27 0.06 152.33 0.06 L 152.33 0.06 Q 152.43 0.05 152.43 -0.06 L 152.43 -0.06 L 152.43 -2.84 L 149.89 -2.84 L 149.89 0.59 L 149.41 0.59 L 149.41 -3.3 L 152.93 -3.3 Z M 152.18 -1.16 L 151.4 -1.16 L 151.4 0.39 L 150.94 0.39 L 150.94 -1.16 L 150.12 -1.16 L 150.12 -1.57 L 151.21 -1.57 Q 151.35 -1.82 151.5 -2.14 Q 151.66 -2.45 151.74 -2.7 L 151.74 -2.7 L 152.14 -2.54 Q 152.02 -2.3 151.88 -2.05 Q 151.75 -1.79 151.62 -1.57 L 151.62 -1.57 L 152.18 -1.57 L 152.18 -1.16 Z M 150.23 -2.55 L 150.58 -2.67 Q 150.72 -2.45 150.85 -2.19 Q 150.98 -1.93 151.04 -1.74 L 151.04 -1.74 L 150.68 -1.61 Q 150.62 -1.79 150.5 -2.06 Q 150.37 -2.33 150.23 -2.55 L 150.23 -2.55 Z M 167.89 -2.46 L 165.91 -2.31 L 165.91 -0.18 Q 165.91 0.08 165.84 0.21 Q 165.78 0.34 165.58 0.42 L 165.58 0.42 Q 165.38 0.5 165.08 0.51 Q 164.78 0.52 164.34 0.52 L 164.34 0.52 Q 164.32 0.38 164.25 0.22 Q 164.18 0.06 164.11 -0.06 L 164.11 -0.06 Q 164.47 -0.05 164.76 -0.05 Q 165.06 -0.05 165.15 -0.05 L 165.15 -0.05 Q 165.26 -0.06 165.28 -0.08 Q 165.31 -0.11 165.31 -0.18 L 165.31 -0.18 L 165.31 -2.26 Q 164.5 -2.21 164 -2.16 Q 163.5 -2.12 163.22 -2.09 Q 162.94 -2.06 162.81 -2.03 Q 162.68 -2 162.59 -1.97 L 162.59 -1.97 Q 162.58 -2.06 162.52 -2.23 Q 162.46 -2.4 162.41 -2.52 L 162.41 -2.52 Q 162.56 -2.54 162.78 -2.62 Q 163 -2.7 163.25 -2.82 Q 163.5 -2.94 163.76 -3.08 Q 164.02 -3.22 164.27 -3.35 Q 164.52 -3.49 164.72 -3.61 Q 164.93 -3.74 165.06 -3.82 L 165.06 -3.82 Q 164.46 -3.78 164.08 -3.76 Q 163.71 -3.73 163.5 -3.71 Q 163.28 -3.69 163.18 -3.67 Q 163.09 -3.65 163.03 -3.62 L 163.03 -3.62 Q 163.02 -3.66 163 -3.73 Q 162.98 -3.8 162.96 -3.88 Q 162.94 -3.95 162.91 -4.03 Q 162.88 -4.1 162.86 -4.16 L 162.86 -4.16 Q 162.98 -4.18 163.12 -4.26 Q 163.26 -4.34 163.44 -4.48 L 163.44 -4.48 Q 163.52 -4.53 163.66 -4.64 Q 163.8 -4.74 163.98 -4.9 Q 164.16 -5.05 164.36 -5.24 Q 164.56 -5.42 164.75 -5.62 L 164.75 -5.62 Q 164.19 -5.58 163.64 -5.54 Q 163.1 -5.5 162.57 -5.48 L 162.57 -5.48 Q 162.55 -5.59 162.51 -5.74 Q 162.46 -5.9 162.42 -6 L 162.42 -6 Q 163.14 -6.04 163.91 -6.1 Q 164.69 -6.16 165.42 -6.24 Q 166.15 -6.31 166.8 -6.41 Q 167.46 -6.51 167.94 -6.63 L 167.94 -6.63 L 168.36 -6.14 Q 167.78 -6.01 167.07 -5.9 Q 166.36 -5.78 165.58 -5.7 L 165.58 -5.7 Q 165.18 -5.3 164.76 -4.92 Q 164.34 -4.54 163.9 -4.23 L 163.9 -4.23 L 165.84 -4.33 Q 166.17 -4.54 166.49 -4.78 Q 166.81 -5.02 167.11 -5.26 L 167.11 -5.26 L 167.57 -4.88 Q 166.69 -4.21 165.79 -3.66 Q 164.89 -3.11 163.98 -2.68 L 163.98 -2.68 L 167.48 -2.9 Q 167.32 -3.08 167.16 -3.24 Q 167 -3.4 166.84 -3.55 L 166.84 -3.55 L 167.29 -3.78 Q 167.52 -3.58 167.76 -3.35 Q 168 -3.11 168.22 -2.88 Q 168.43 -2.65 168.62 -2.43 Q 168.8 -2.21 168.92 -2.02 L 168.92 -2.02 L 168.45 -1.74 Q 168.34 -1.89 168.2 -2.07 Q 168.06 -2.26 167.89 -2.46 L 167.89 -2.46 Z M 166.62 -1.54 L 167.09 -1.84 Q 167.34 -1.66 167.6 -1.45 Q 167.87 -1.23 168.13 -1.01 Q 168.38 -0.79 168.61 -0.58 Q 168.83 -0.38 168.99 -0.21 L 168.99 -0.21 L 168.49 0.15 Q 168.34 -0.02 168.12 -0.23 Q 167.9 -0.44 167.65 -0.67 Q 167.4 -0.9 167.13 -1.12 Q 166.86 -1.34 166.62 -1.54 L 166.62 -1.54 Z M 163.84 -1.8 L 164.43 -1.59 Q 164.26 -1.35 164.04 -1.11 Q 163.82 -0.87 163.58 -0.65 Q 163.35 -0.42 163.11 -0.22 Q 162.87 -0.02 162.65 0.14 L 162.65 0.14 Q 162.56 0.05 162.4 -0.07 Q 162.25 -0.19 162.13 -0.26 L 162.13 -0.26 Q 162.37 -0.4 162.61 -0.58 Q 162.85 -0.76 163.07 -0.96 Q 163.29 -1.16 163.49 -1.37 Q 163.69 -1.58 163.84 -1.8 L 163.84 -1.8 Z M 175.69 -2.31 L 177.18 -2.61 Q 177.17 -2.49 177.18 -2.33 Q 177.18 -2.18 177.2 -2.09 L 177.2 -2.09 Q 176.46 -1.93 176.01 -1.82 Q 175.57 -1.72 175.32 -1.66 Q 175.06 -1.59 174.96 -1.55 Q 174.86 -1.51 174.79 -1.47 L 174.79 -1.47 Q 174.77 -1.56 174.71 -1.74 Q 174.65 -1.92 174.6 -2.04 L 174.6 -2.04 Q 174.72 -2.07 174.87 -2.21 Q 175.02 -2.34 175.2 -2.57 L 175.2 -2.57 Q 175.31 -2.68 175.52 -2.96 Q 175.74 -3.24 175.99 -3.62 L 175.99 -3.62 Q 175.63 -3.57 175.41 -3.53 Q 175.18 -3.5 175.05 -3.47 Q 174.92 -3.44 174.85 -3.42 Q 174.78 -3.4 174.74 -3.38 L 174.74 -3.38 Q 174.71 -3.48 174.65 -3.67 Q 174.58 -3.86 174.53 -3.99 L 174.53 -3.99 Q 174.64 -4.02 174.75 -4.14 Q 174.86 -4.27 174.99 -4.47 L 174.99 -4.47 Q 175.06 -4.57 175.2 -4.8 Q 175.34 -5.03 175.5 -5.34 Q 175.66 -5.64 175.83 -6 Q 175.99 -6.36 176.12 -6.72 L 176.12 -6.72 L 176.73 -6.44 Q 176.45 -5.82 176.1 -5.2 Q 175.75 -4.58 175.38 -4.06 L 175.38 -4.06 L 176.35 -4.16 Q 176.49 -4.37 176.62 -4.59 Q 176.74 -4.82 176.86 -5.03 L 176.86 -5.03 L 177.38 -4.72 Q 177.01 -4.07 176.58 -3.46 Q 176.14 -2.84 175.69 -2.31 L 175.69 -2.31 Z M 181.79 -2.9 L 181.3 -2.61 Q 181.23 -2.74 181.15 -2.88 Q 181.07 -3.03 180.98 -3.19 L 180.98 -3.19 Q 179.9 -3.09 179.25 -3.03 Q 178.61 -2.97 178.26 -2.92 Q 177.9 -2.88 177.76 -2.85 Q 177.62 -2.82 177.54 -2.78 L 177.54 -2.78 Q 177.53 -2.84 177.5 -2.92 Q 177.47 -3 177.44 -3.08 Q 177.42 -3.17 177.39 -3.24 Q 177.36 -3.31 177.34 -3.36 L 177.34 -3.36 Q 177.45 -3.39 177.58 -3.44 Q 177.72 -3.5 177.83 -3.61 L 177.83 -3.61 Q 177.9 -3.67 178.04 -3.83 Q 178.17 -3.98 178.32 -4.18 Q 178.48 -4.38 178.64 -4.6 Q 178.81 -4.82 178.94 -5 L 178.94 -5 L 177.5 -5 L 177.5 -5.54 L 179.42 -5.54 Q 179.37 -5.74 179.24 -6.03 Q 179.1 -6.32 178.99 -6.56 L 178.99 -6.56 L 179.54 -6.71 Q 179.67 -6.47 179.81 -6.18 Q 179.94 -5.89 180.02 -5.7 L 180.02 -5.7 L 179.51 -5.54 L 181.78 -5.54 L 181.78 -5 L 179.63 -5 Q 179.5 -4.82 179.36 -4.62 Q 179.22 -4.42 179.07 -4.22 Q 178.92 -4.02 178.77 -3.83 Q 178.62 -3.64 178.49 -3.48 L 178.49 -3.48 L 180.68 -3.66 Q 180.55 -3.86 180.42 -4.05 Q 180.29 -4.24 180.15 -4.42 L 180.15 -4.42 L 180.62 -4.65 Q 180.78 -4.44 180.95 -4.2 Q 181.12 -3.97 181.28 -3.73 Q 181.43 -3.5 181.57 -3.28 Q 181.7 -3.06 181.79 -2.9 L 181.79 -2.9 Z M 180.59 -0.06 L 181.14 -0.06 Q 181.2 -0.06 181.24 -0.1 Q 181.28 -0.14 181.3 -0.26 Q 181.33 -0.38 181.34 -0.59 Q 181.35 -0.81 181.36 -1.17 L 181.36 -1.17 Q 181.45 -1.08 181.6 -1.02 Q 181.76 -0.96 181.87 -0.93 L 181.87 -0.93 Q 181.86 -0.52 181.82 -0.25 Q 181.78 0.02 181.7 0.17 Q 181.62 0.33 181.5 0.39 Q 181.38 0.45 181.2 0.45 L 181.2 0.45 L 180.5 0.45 Q 180.3 0.45 180.16 0.41 Q 180.02 0.38 179.95 0.29 Q 179.87 0.2 179.84 0.06 Q 179.81 -0.09 179.81 -0.3 L 179.81 -0.3 L 179.81 -2.82 L 180.39 -2.82 L 180.39 -0.3 Q 180.39 -0.14 180.42 -0.1 Q 180.46 -0.06 180.59 -0.06 L 180.59 -0.06 Z M 178.32 -2.81 L 178.9 -2.81 Q 178.88 -2.14 178.8 -1.6 Q 178.73 -1.07 178.54 -0.66 Q 178.35 -0.25 178.02 0.06 Q 177.69 0.37 177.14 0.58 L 177.14 0.58 Q 177.1 0.47 176.99 0.33 Q 176.89 0.18 176.78 0.11 L 176.78 0.11 Q 177.27 -0.07 177.56 -0.33 Q 177.86 -0.58 178.02 -0.94 Q 178.18 -1.3 178.24 -1.76 Q 178.3 -2.22 178.32 -2.81 L 178.32 -2.81 Z M 177.18 -1.19 L 177.27 -0.67 Q 176.6 -0.46 175.94 -0.24 Q 175.27 -0.03 174.74 0.14 L 174.74 0.14 L 174.6 -0.45 Q 174.84 -0.51 175.14 -0.6 Q 175.43 -0.68 175.77 -0.78 Q 176.1 -0.87 176.46 -0.98 Q 176.82 -1.09 177.18 -1.19 L 177.18 -1.19 Z M 190.71 0 L 187.62 0 L 187.62 -5.71 L 190.71 -5.71 L 190.71 0 Z M 188.01 -5.3 L 188.01 -0.41 L 190.33 -0.41 L 190.33 -5.3 L 188.01 -5.3 Z M 198.34 -6.67 L 198.9 -6.5 Q 198.72 -6.07 198.52 -5.65 Q 198.31 -5.23 198.08 -4.84 L 198.08 -4.84 L 198.08 0.59 L 197.51 0.59 L 197.51 -3.97 Q 197.3 -3.68 197.09 -3.42 Q 196.87 -3.17 196.66 -2.94 L 196.66 -2.94 Q 196.63 -2.99 196.59 -3.07 Q 196.55 -3.14 196.5 -3.23 Q 196.46 -3.31 196.41 -3.39 Q 196.36 -3.47 196.32 -3.52 L 196.32 -3.52 Q 196.62 -3.81 196.9 -4.16 Q 197.19 -4.52 197.45 -4.93 Q 197.71 -5.34 197.94 -5.78 Q 198.17 -6.22 198.34 -6.67 L 198.34 -6.67 Z M 203.72 -2.26 L 201.82 -2.26 Q 202.02 -1.94 202.27 -1.64 Q 202.51 -1.34 202.78 -1.06 Q 203.06 -0.79 203.35 -0.57 Q 203.64 -0.35 203.93 -0.19 L 203.93 -0.19 Q 203.83 -0.11 203.71 0.03 Q 203.58 0.17 203.5 0.28 L 203.5 0.28 Q 202.96 -0.07 202.42 -0.65 Q 201.89 -1.23 201.48 -1.89 L 201.48 -1.89 L 201.48 0.62 L 200.89 0.62 L 200.89 -1.86 Q 200.68 -1.54 200.43 -1.22 Q 200.18 -0.91 199.9 -0.64 Q 199.62 -0.36 199.33 -0.13 Q 199.04 0.1 198.75 0.26 L 198.75 0.26 Q 198.67 0.15 198.56 0.02 Q 198.44 -0.12 198.34 -0.21 L 198.34 -0.21 Q 198.65 -0.36 198.96 -0.58 Q 199.26 -0.8 199.55 -1.07 Q 199.83 -1.34 200.09 -1.64 Q 200.34 -1.94 200.54 -2.26 L 200.54 -2.26 L 198.57 -2.26 L 198.57 -2.8 L 200.89 -2.8 L 200.89 -3.79 L 199.16 -3.79 L 199.16 -6.32 L 203.28 -6.32 L 203.28 -3.79 L 201.48 -3.79 L 201.48 -2.8 L 203.72 -2.8 L 203.72 -2.26 Z M 199.72 -5.78 L 199.72 -4.32 L 202.69 -4.32 L 202.69 -5.78 L 199.72 -5.78 Z M 211.29 -5.31 L 210.88 -4.9 Q 210.78 -5.03 210.64 -5.19 Q 210.5 -5.34 210.33 -5.5 Q 210.16 -5.66 209.98 -5.82 Q 209.81 -5.98 209.65 -6.12 L 209.65 -6.12 L 210.04 -6.48 Q 210.2 -6.35 210.38 -6.2 Q 210.56 -6.05 210.73 -5.89 Q 210.9 -5.74 211.04 -5.58 Q 211.19 -5.43 211.29 -5.31 L 211.29 -5.31 Z M 214.58 -0.26 L 216.46 -0.26 L 216.46 0.3 L 211.63 0.3 L 211.63 -0.26 L 212.32 -0.26 L 212.32 -4.09 L 212.9 -4.09 L 212.9 -0.26 L 213.98 -0.26 L 213.98 -5.52 L 211.91 -5.52 L 211.91 -6.08 L 216.3 -6.08 L 216.3 -5.52 L 214.58 -5.52 L 214.58 -3.44 L 216.15 -3.44 L 216.15 -2.88 L 214.58 -2.88 L 214.58 -0.26 Z M 210.93 -0.9 L 211.74 -1.51 Q 211.78 -1.39 211.85 -1.24 Q 211.92 -1.09 211.98 -1 L 211.98 -1 Q 211.46 -0.61 211.15 -0.36 Q 210.84 -0.11 210.66 0.03 Q 210.48 0.18 210.4 0.26 Q 210.32 0.34 210.28 0.39 L 210.28 0.39 Q 210.22 0.3 210.1 0.18 Q 209.99 0.06 209.9 -0.01 L 209.9 -0.01 Q 209.97 -0.06 210.04 -0.14 Q 210.12 -0.22 210.19 -0.33 Q 210.26 -0.44 210.3 -0.58 Q 210.35 -0.71 210.35 -0.86 L 210.35 -0.86 L 210.35 -3.62 L 209.23 -3.62 L 209.23 -4.19 L 210.93 -4.19 L 210.93 -0.9 Z M 225.82 -0.23 L 229.06 -0.23 L 229.06 0.35 L 221.98 0.35 L 221.98 -0.23 L 225.18 -0.23 L 225.18 -2.19 L 222.72 -2.19 L 222.72 -2.77 L 225.18 -2.77 L 225.18 -4.52 L 222.35 -4.52 L 222.35 -5.1 L 225.86 -5.1 Q 225.74 -5.24 225.58 -5.4 Q 225.42 -5.56 225.24 -5.72 Q 225.06 -5.89 224.88 -6.04 Q 224.69 -6.2 224.5 -6.33 L 224.5 -6.33 L 224.98 -6.66 Q 225.18 -6.53 225.38 -6.36 Q 225.59 -6.19 225.79 -6.02 Q 225.99 -5.85 226.16 -5.68 Q 226.33 -5.52 226.45 -5.38 L 226.45 -5.38 L 226.07 -5.1 L 228.66 -5.1 L 228.66 -4.52 L 225.82 -4.52 L 225.82 -2.77 L 228.33 -2.77 L 228.33 -2.19 L 225.82 -2.19 L 225.82 -0.23 Z M 237.85 -2.62 L 237.48 -2.08 Q 237.41 -2.19 237.3 -2.36 Q 237.18 -2.52 237.05 -2.71 Q 236.92 -2.9 236.78 -3.08 Q 236.63 -3.27 236.5 -3.44 L 236.5 -3.44 L 236.5 0.61 L 235.92 0.61 L 235.92 -3.38 Q 235.8 -3.02 235.66 -2.65 Q 235.53 -2.29 235.37 -1.96 Q 235.22 -1.62 235.06 -1.34 Q 234.9 -1.05 234.73 -0.83 L 234.73 -0.83 Q 234.67 -0.97 234.57 -1.14 Q 234.46 -1.3 234.38 -1.42 L 234.38 -1.42 Q 234.58 -1.67 234.79 -2.02 Q 235 -2.37 235.18 -2.77 Q 235.36 -3.18 235.51 -3.6 Q 235.66 -4.03 235.77 -4.45 L 235.77 -4.45 L 234.6 -4.45 L 234.6 -5.01 L 235.92 -5.01 L 235.92 -6.7 L 236.5 -6.7 L 236.5 -5.01 L 237.57 -5.01 L 237.57 -4.45 L 236.5 -4.45 L 236.5 -4.12 Q 236.6 -4.02 236.8 -3.81 Q 236.99 -3.59 237.2 -3.36 Q 237.41 -3.12 237.59 -2.91 Q 237.78 -2.7 237.85 -2.62 L 237.85 -2.62 Z M 241.29 -5.98 L 241.66 -5.86 Q 241.46 -4.45 241.03 -3.36 Q 240.61 -2.26 240.01 -1.44 L 240.01 -1.44 Q 240.38 -0.98 240.84 -0.59 Q 241.31 -0.2 241.91 0.17 L 241.91 0.17 Q 241.8 0.26 241.68 0.39 Q 241.55 0.52 241.49 0.66 L 241.49 0.66 Q 240.34 -0.08 239.62 -0.97 L 239.62 -0.97 Q 239.17 -0.44 238.64 -0.05 Q 238.1 0.34 237.51 0.61 L 237.51 0.61 Q 237.46 0.5 237.35 0.35 Q 237.24 0.2 237.14 0.11 L 237.14 0.11 Q 237.74 -0.13 238.27 -0.52 Q 238.81 -0.9 239.26 -1.45 L 239.26 -1.45 Q 238.74 -2.23 238.42 -3.19 Q 238.09 -4.15 237.87 -5.38 L 237.87 -5.38 L 237.59 -5.38 L 237.59 -5.96 L 241.18 -5.96 L 241.29 -5.98 Z M 241.01 -5.38 L 238.42 -5.38 Q 238.62 -4.31 238.9 -3.47 Q 239.19 -2.63 239.64 -1.94 L 239.64 -1.94 Q 240.12 -2.62 240.47 -3.48 Q 240.82 -4.34 241.01 -5.38 L 241.01 -5.38 Z M 248.97 -3.22 L 248.97 -4.19 Q 248.66 -3.83 248.3 -3.52 Q 247.93 -3.22 247.56 -3.02 L 247.56 -3.02 Q 247.51 -3.13 247.42 -3.26 Q 247.33 -3.38 247.24 -3.47 L 247.24 -3.47 Q 247.66 -3.66 248.08 -3.99 Q 248.49 -4.33 248.78 -4.72 L 248.78 -4.72 L 247.32 -4.72 L 247.32 -5.22 L 248.97 -5.22 L 248.97 -6.7 L 249.52 -6.7 L 249.52 -5.22 L 251.15 -5.22 L 251.15 -4.72 L 249.65 -4.72 Q 249.8 -4.63 249.99 -4.51 Q 250.18 -4.39 250.37 -4.28 Q 250.55 -4.16 250.7 -4.06 Q 250.85 -3.95 250.92 -3.9 L 250.92 -3.9 L 250.59 -3.47 Q 250.52 -3.54 250.4 -3.64 Q 250.27 -3.74 250.13 -3.86 Q 249.98 -3.98 249.82 -4.1 Q 249.66 -4.22 249.52 -4.32 L 249.52 -4.32 L 249.52 -3.22 L 248.97 -3.22 Z M 254.45 -4.6 L 253.92 -4.6 Q 253.78 -3.7 253.58 -2.96 Q 253.37 -2.22 253.05 -1.59 L 253.05 -1.59 Q 253.35 -1.04 253.74 -0.61 Q 254.14 -0.18 254.64 0.08 L 254.64 0.08 Q 254.54 0.17 254.42 0.3 Q 254.31 0.43 254.25 0.54 L 254.25 0.54 Q 253.78 0.26 253.41 -0.14 Q 253.03 -0.54 252.74 -1.06 L 252.74 -1.06 Q 252.38 -0.53 251.92 -0.11 Q 251.46 0.3 250.84 0.64 L 250.84 0.64 Q 250.82 0.59 250.78 0.53 Q 250.74 0.46 250.7 0.4 Q 250.65 0.33 250.6 0.26 Q 250.55 0.2 250.51 0.16 L 250.51 0.16 Q 251.16 -0.16 251.64 -0.6 Q 252.11 -1.03 252.45 -1.61 L 252.45 -1.61 Q 252.22 -2.08 252.05 -2.61 Q 251.88 -3.14 251.74 -3.74 L 251.74 -3.74 Q 251.5 -3.16 251.2 -2.7 L 251.2 -2.7 Q 251.13 -2.77 250.99 -2.88 Q 250.85 -2.99 250.75 -3.06 L 250.75 -3.06 Q 250.98 -3.37 251.16 -3.77 Q 251.34 -4.18 251.49 -4.63 Q 251.63 -5.09 251.74 -5.59 Q 251.85 -6.1 251.92 -6.62 L 251.92 -6.62 L 252.46 -6.54 Q 252.42 -6.18 252.35 -5.83 Q 252.28 -5.49 252.19 -5.15 L 252.19 -5.15 L 254.45 -5.15 L 254.45 -4.6 Z M 250.45 -6.54 L 250.94 -6.32 Q 250.77 -6.05 250.58 -5.77 Q 250.4 -5.5 250.23 -5.3 L 250.23 -5.3 L 249.85 -5.48 Q 250 -5.7 250.17 -6 Q 250.34 -6.3 250.45 -6.54 L 250.45 -6.54 Z M 248.58 -5.46 L 248.12 -5.27 Q 248.06 -5.48 247.92 -5.78 Q 247.78 -6.07 247.62 -6.32 L 247.62 -6.32 L 248.06 -6.5 Q 248.22 -6.26 248.37 -5.98 Q 248.51 -5.69 248.58 -5.46 L 248.58 -5.46 Z M 253.35 -4.6 L 252.07 -4.6 Q 252.18 -3.95 252.35 -3.35 Q 252.52 -2.74 252.75 -2.21 L 252.75 -2.21 Q 252.97 -2.71 253.12 -3.31 Q 253.26 -3.9 253.35 -4.6 L 253.35 -4.6 Z M 250.58 -0.36 L 250.21 0.03 Q 250.07 -0.07 249.9 -0.19 Q 249.72 -0.3 249.51 -0.42 L 249.51 -0.42 Q 249.08 -0.07 248.58 0.16 Q 248.09 0.4 247.54 0.54 L 247.54 0.54 Q 247.5 0.45 247.42 0.31 Q 247.34 0.18 247.26 0.09 L 247.26 0.09 Q 247.74 -0.02 248.19 -0.21 Q 248.64 -0.4 249.03 -0.68 L 249.03 -0.68 Q 248.73 -0.84 248.42 -0.98 Q 248.1 -1.12 247.81 -1.23 L 247.81 -1.23 Q 247.94 -1.42 248.06 -1.63 Q 248.19 -1.85 248.32 -2.08 L 248.32 -2.08 L 247.49 -2.08 L 247.49 -2.58 L 248.57 -2.58 Q 248.63 -2.72 248.68 -2.84 Q 248.74 -2.97 248.78 -3.1 L 248.78 -3.1 L 249.3 -3 Q 249.26 -2.9 249.22 -2.8 Q 249.18 -2.7 249.14 -2.58 L 249.14 -2.58 L 250.44 -2.58 L 250.53 -2.61 L 250.86 -2.47 Q 250.7 -1.95 250.46 -1.53 Q 250.22 -1.11 249.9 -0.78 L 249.9 -0.78 Q 250.1 -0.66 250.27 -0.56 Q 250.44 -0.46 250.58 -0.36 L 250.58 -0.36 Z M 250.18 -2.08 L 248.89 -2.08 Q 248.8 -1.91 248.71 -1.75 Q 248.62 -1.58 248.54 -1.45 L 248.54 -1.45 Q 248.76 -1.35 248.99 -1.24 Q 249.22 -1.14 249.44 -1.02 L 249.44 -1.02 Q 249.67 -1.24 249.86 -1.5 Q 250.05 -1.77 250.18 -2.08 L 250.18 -2.08 Z M 262.42 -2.67 L 261.5 -2.38 L 261.5 -0.13 Q 261.5 0.12 261.44 0.25 Q 261.38 0.38 261.23 0.45 L 261.23 0.45 Q 261.1 0.52 260.86 0.54 Q 260.62 0.57 260.24 0.56 L 260.24 0.56 Q 260.22 0.45 260.18 0.29 Q 260.13 0.14 260.06 0.01 L 260.06 0.01 Q 260.32 0.02 260.54 0.02 Q 260.75 0.02 260.82 0.02 L 260.82 0.02 Q 260.89 0.02 260.92 -0.02 Q 260.95 -0.05 260.95 -0.14 L 260.95 -0.14 L 260.95 -2.19 Q 260.7 -2.1 260.46 -2.03 Q 260.22 -1.96 260.01 -1.9 L 260.01 -1.9 L 259.86 -2.46 Q 260.09 -2.53 260.36 -2.61 Q 260.64 -2.7 260.95 -2.78 L 260.95 -2.78 L 260.95 -4.54 L 259.96 -4.54 L 259.96 -5.09 L 260.95 -5.09 L 260.95 -6.69 L 261.5 -6.69 L 261.5 -5.09 L 262.41 -5.09 L 262.41 -4.54 L 261.5 -4.54 L 261.5 -2.95 L 262.34 -3.22 L 262.42 -2.67 Z M 267.22 -2.9 L 265.45 -2.9 L 265.45 -1.91 L 266.98 -1.91 L 266.98 0.59 L 266.44 0.59 L 266.44 0.3 L 263.98 0.3 L 263.98 0.62 L 263.46 0.62 L 263.46 -1.91 L 264.88 -1.91 L 264.88 -2.9 L 263.3 -2.9 Q 263.28 -2.46 263.22 -1.99 Q 263.16 -1.52 263.05 -1.06 Q 262.94 -0.61 262.77 -0.18 Q 262.6 0.25 262.34 0.62 L 262.34 0.62 Q 262.27 0.53 262.12 0.42 Q 261.97 0.32 261.86 0.28 L 261.86 0.28 Q 262.18 -0.18 262.35 -0.72 Q 262.53 -1.26 262.62 -1.82 Q 262.71 -2.38 262.74 -2.92 Q 262.76 -3.47 262.76 -3.94 L 262.76 -3.94 L 262.76 -6.34 L 266.95 -6.34 L 266.95 -4.29 L 265.45 -4.29 L 265.45 -3.41 L 267.22 -3.41 L 267.22 -2.9 Z M 266.38 -5.82 L 263.34 -5.82 L 263.34 -4.81 L 266.38 -4.81 L 266.38 -5.82 Z M 263.33 -3.41 L 264.88 -3.41 L 264.88 -4.29 L 263.34 -4.29 L 263.34 -3.94 Q 263.34 -3.81 263.34 -3.68 Q 263.34 -3.55 263.33 -3.41 L 263.33 -3.41 Z M 266.44 -0.2 L 266.44 -1.41 L 263.98 -1.41 L 263.98 -0.2 L 266.44 -0.2 Z" stroke-linecap="round" />
</g>
</g>
</g>
</svg>